<?xml version="1.0" standalone="no"?>
<!DOCTYPE svg PUBLIC "-//W3C//DTD SVG 20010904//EN"
 "http://www.w3.org/TR/2001/REC-SVG-20010904/DTD/svg10.dtd">
<svg version="1.0" xmlns="http://www.w3.org/2000/svg"
 width="400.000000pt" height="400.000000pt" viewBox="0 0 400.000000 400.000000"
 preserveAspectRatio="xMidYMid meet">
<metadata>
Created by potrace 1.14, written by Peter Selinger 2001-2017
</metadata>
<g transform="translate(0.000000,400.000000) scale(0.100000,-0.100000)"
fill="#000000" stroke="none">
<path d="M1895 3994 c-280 -20 -532 -87 -777 -209 -640 -318 -1073 -965 -1106
-1655 -18 -357 32 -638 167 -941 151 -340 418 -652 736 -862 351 -231 798
-348 1212 -317 948 72 1710 774 1848 1705 21 142 21 408 0 551 -51 347 -191
681 -404 959 -62 82 -231 255 -316 325 -329 269 -752 426 -1195 443 -63 2
-137 3 -165 1z m460 -163 c631 -128 1156 -573 1390 -1179 44 -113 89 -297 105
-425 18 -140 8 -432 -19 -577 -68 -358 -253 -705 -515 -965 -264 -261 -586
-436 -945 -512 -116 -25 -145 -27 -366 -28 -212 0 -253 3 -353 23 -156 32
-304 82 -452 153 -534 257 -904 728 -1026 1303 -31 147 -44 454 -25 601 48
367 213 730 460 1012 287 327 694 547 1127 608 153 22 478 14 619 -14z"/>
<path d="M2685 3435 c-16 -8 -70 -26 -119 -40 -177 -53 -439 -178 -553 -265
l-52 -39 -74 34 c-94 44 -190 70 -308 84 -52 7 -121 16 -155 22 -195 30 -284
-18 -284 -153 0 -101 83 -410 148 -552 26 -57 33 -81 24 -84 -7 -2 -40 -24
-73 -49 -110 -83 -187 -196 -262 -388 -47 -120 -52 -140 -37 -176 18 -43 146
-103 308 -142 70 -17 128 -32 130 -32 4 -3 -103 -292 -136 -370 -42 -96 -97
-284 -112 -378 -32 -198 30 -332 180 -388 109 -41 231 -21 314 53 66 58 90
104 135 271 34 124 69 227 152 445 9 23 11 22 53 -30 69 -83 230 -224 271
-238 100 -33 192 47 273 238 34 79 123 362 142 453 l13 56 81 6 c157 12 301
64 459 166 97 63 157 119 157 147 0 23 -89 149 -172 244 -85 97 -170 173 -278
251 l-75 54 -1 225 c-1 247 -23 422 -65 521 -26 60 -44 71 -84 54z m22 -145
c31 -104 43 -236 43 -481 0 -232 1 -247 20 -264 14 -13 23 -15 33 -7 29 25
276 -198 405 -365 l63 -82 -68 -50 c-164 -120 -329 -179 -521 -186 -56 -2
-107 -7 -112 -10 -12 -8 -13 -52 -1 -59 15 -10 -15 -133 -74 -311 -65 -191
-112 -294 -158 -343 -46 -48 -73 -44 -157 29 -133 114 -247 273 -314 439 l-35
85 -48 11 c-26 7 -127 19 -223 28 -200 19 -312 41 -426 85 -128 49 -124 43
-85 147 46 123 92 211 141 272 51 65 168 154 193 148 29 -7 59 29 51 62 -4 15
-12 32 -19 37 -7 6 -33 58 -58 115 -114 261 -159 498 -106 551 24 24 7 24 244
-5 211 -26 381 -78 424 -130 23 -27 59 -18 116 29 81 65 157 112 280 171 113
55 339 136 365 131 8 -1 20 -22 27 -47z"/>
</g>
</svg>
